<mxfile host="app.diagrams.net" modified="2024-04-10T13:11:19.549Z" agent="Mozilla/5.0 (Windows NT 10.0; Win64; x64) AppleWebKit/537.36 (KHTML, like Gecko) Chrome/123.0.0.0 Safari/537.36 Edg/123.0.0.0" etag="AvWNoEpsX3mHdDiVXxwX" version="24.2.3" type="github">
  <diagram id="R2lEEEUBdFMjLlhIrx00" name="Page-1">
    <mxGraphModel dx="1423" dy="927" grid="1" gridSize="10" guides="1" tooltips="1" connect="1" arrows="1" fold="1" page="1" pageScale="1" pageWidth="850" pageHeight="1100" math="0" shadow="0" extFonts="Permanent Marker^https://fonts.googleapis.com/css?family=Permanent+Marker">
      <root>
        <mxCell id="0" />
        <mxCell id="1" parent="0" />
        <mxCell id="9Bpj3PZlE4hfknJTu2K--1" value="Customer" style="swimlane;whiteSpace=wrap;html=1;" vertex="1" parent="1">
          <mxGeometry x="120" y="70" width="200" height="200" as="geometry" />
        </mxCell>
        <mxCell id="9Bpj3PZlE4hfknJTu2K--6" value="&lt;u&gt;cust_id&lt;/u&gt;&lt;br&gt;name&lt;br&gt;phone" style="text;html=1;align=center;verticalAlign=middle;resizable=0;points=[];autosize=1;strokeColor=none;fillColor=none;" vertex="1" parent="9Bpj3PZlE4hfknJTu2K--1">
          <mxGeometry x="65" y="70" width="70" height="60" as="geometry" />
        </mxCell>
        <mxCell id="9Bpj3PZlE4hfknJTu2K--2" value="Car" style="swimlane;whiteSpace=wrap;html=1;" vertex="1" parent="1">
          <mxGeometry x="660" y="70" width="200" height="200" as="geometry" />
        </mxCell>
        <mxCell id="9Bpj3PZlE4hfknJTu2K--3" value="Accident" style="swimlane;whiteSpace=wrap;html=1;" vertex="1" parent="1">
          <mxGeometry x="660" y="520" width="200" height="200" as="geometry" />
        </mxCell>
        <mxCell id="9Bpj3PZlE4hfknJTu2K--16" value="&lt;u&gt;acci_id&lt;/u&gt;&lt;br&gt;date&lt;br&gt;place&lt;br&gt;rank" style="text;html=1;align=center;verticalAlign=middle;resizable=0;points=[];autosize=1;strokeColor=none;fillColor=none;" vertex="1" parent="9Bpj3PZlE4hfknJTu2K--3">
          <mxGeometry x="67" y="65" width="70" height="80" as="geometry" />
        </mxCell>
        <mxCell id="9Bpj3PZlE4hfknJTu2K--4" value="Insurance policy" style="swimlane;whiteSpace=wrap;html=1;" vertex="1" parent="1">
          <mxGeometry x="1200" y="70" width="200" height="200" as="geometry" />
        </mxCell>
        <mxCell id="9Bpj3PZlE4hfknJTu2K--5" value="Premium payments" style="swimlane;whiteSpace=wrap;html=1;" vertex="1" parent="1">
          <mxGeometry x="1200" y="470" width="200" height="200" as="geometry" />
        </mxCell>
        <mxCell id="9Bpj3PZlE4hfknJTu2K--7" value="owner" style="rhombus;whiteSpace=wrap;html=1;" vertex="1" parent="1">
          <mxGeometry x="450" y="130" width="80" height="80" as="geometry" />
        </mxCell>
        <mxCell id="9Bpj3PZlE4hfknJTu2K--8" value="" style="shape=link;html=1;rounded=0;exitX=1;exitY=0.5;exitDx=0;exitDy=0;entryX=0;entryY=0.5;entryDx=0;entryDy=0;" edge="1" parent="1" source="9Bpj3PZlE4hfknJTu2K--1" target="9Bpj3PZlE4hfknJTu2K--7">
          <mxGeometry width="100" relative="1" as="geometry">
            <mxPoint x="440" y="360" as="sourcePoint" />
            <mxPoint x="540" y="360" as="targetPoint" />
          </mxGeometry>
        </mxCell>
        <mxCell id="9Bpj3PZlE4hfknJTu2K--10" value="" style="shape=link;html=1;rounded=0;exitX=1;exitY=0.5;exitDx=0;exitDy=0;entryX=0;entryY=0.5;entryDx=0;entryDy=0;" edge="1" parent="1" source="9Bpj3PZlE4hfknJTu2K--7" target="9Bpj3PZlE4hfknJTu2K--2">
          <mxGeometry width="100" relative="1" as="geometry">
            <mxPoint x="440" y="360" as="sourcePoint" />
            <mxPoint x="540" y="360" as="targetPoint" />
          </mxGeometry>
        </mxCell>
        <mxCell id="9Bpj3PZlE4hfknJTu2K--11" value="&lt;u&gt;car_id&lt;br&gt;&lt;/u&gt;car_name" style="text;html=1;align=center;verticalAlign=middle;resizable=0;points=[];autosize=1;strokeColor=none;fillColor=none;" vertex="1" parent="1">
          <mxGeometry x="717" y="150" width="90" height="50" as="geometry" />
        </mxCell>
        <mxCell id="9Bpj3PZlE4hfknJTu2K--12" value="ohno" style="rhombus;whiteSpace=wrap;html=1;" vertex="1" parent="1">
          <mxGeometry x="720" y="350" width="80" height="80" as="geometry" />
        </mxCell>
        <mxCell id="9Bpj3PZlE4hfknJTu2K--14" value="" style="endArrow=none;html=1;rounded=0;entryX=0.5;entryY=1;entryDx=0;entryDy=0;exitX=0.5;exitY=0;exitDx=0;exitDy=0;" edge="1" parent="1" source="9Bpj3PZlE4hfknJTu2K--12" target="9Bpj3PZlE4hfknJTu2K--2">
          <mxGeometry width="50" height="50" relative="1" as="geometry">
            <mxPoint x="470" y="380" as="sourcePoint" />
            <mxPoint x="520" y="330" as="targetPoint" />
          </mxGeometry>
        </mxCell>
        <mxCell id="9Bpj3PZlE4hfknJTu2K--17" value="covering" style="rhombus;whiteSpace=wrap;html=1;" vertex="1" parent="1">
          <mxGeometry x="990" y="130" width="80" height="80" as="geometry" />
        </mxCell>
        <mxCell id="9Bpj3PZlE4hfknJTu2K--18" value="" style="shape=link;html=1;rounded=0;exitX=1;exitY=0.5;exitDx=0;exitDy=0;entryX=0;entryY=0.5;entryDx=0;entryDy=0;" edge="1" parent="1" source="9Bpj3PZlE4hfknJTu2K--2" target="9Bpj3PZlE4hfknJTu2K--17">
          <mxGeometry width="100" relative="1" as="geometry">
            <mxPoint x="540" y="180" as="sourcePoint" />
            <mxPoint x="670" y="180" as="targetPoint" />
          </mxGeometry>
        </mxCell>
        <mxCell id="9Bpj3PZlE4hfknJTu2K--20" value="" style="shape=link;html=1;rounded=0;exitX=1;exitY=0.5;exitDx=0;exitDy=0;entryX=0;entryY=0.5;entryDx=0;entryDy=0;" edge="1" parent="1">
          <mxGeometry width="100" relative="1" as="geometry">
            <mxPoint x="1070" y="169.5" as="sourcePoint" />
            <mxPoint x="1200" y="169.5" as="targetPoint" />
          </mxGeometry>
        </mxCell>
        <mxCell id="9Bpj3PZlE4hfknJTu2K--21" value="" style="endArrow=none;html=1;rounded=0;entryX=0.5;entryY=1;entryDx=0;entryDy=0;exitX=0.5;exitY=0;exitDx=0;exitDy=0;" edge="1" parent="1" source="9Bpj3PZlE4hfknJTu2K--3">
          <mxGeometry width="50" height="50" relative="1" as="geometry">
            <mxPoint x="759.5" y="510" as="sourcePoint" />
            <mxPoint x="759.5" y="430" as="targetPoint" />
          </mxGeometry>
        </mxCell>
        <mxCell id="9Bpj3PZlE4hfknJTu2K--22" value="pay" style="rhombus;whiteSpace=wrap;html=1;" vertex="1" parent="1">
          <mxGeometry x="1260" y="320" width="80" height="80" as="geometry" />
        </mxCell>
        <mxCell id="9Bpj3PZlE4hfknJTu2K--24" value="pay_period&lt;br&gt;&lt;u&gt;pay_id&lt;/u&gt;&lt;br&gt;due_date&lt;br&gt;receive_time" style="text;html=1;align=center;verticalAlign=middle;resizable=0;points=[];autosize=1;strokeColor=none;fillColor=none;" vertex="1" parent="1">
          <mxGeometry x="1252" y="525" width="100" height="80" as="geometry" />
        </mxCell>
        <mxCell id="9Bpj3PZlE4hfknJTu2K--25" value="&lt;u&gt;Insp_id&lt;/u&gt;" style="text;html=1;align=center;verticalAlign=middle;resizable=0;points=[];autosize=1;strokeColor=none;fillColor=none;" vertex="1" parent="1">
          <mxGeometry x="1257" y="160" width="70" height="30" as="geometry" />
        </mxCell>
        <mxCell id="9Bpj3PZlE4hfknJTu2K--26" value="" style="shape=link;html=1;rounded=0;exitX=0.5;exitY=0;exitDx=0;exitDy=0;entryX=0.5;entryY=1;entryDx=0;entryDy=0;" edge="1" parent="1" source="9Bpj3PZlE4hfknJTu2K--22" target="9Bpj3PZlE4hfknJTu2K--4">
          <mxGeometry width="100" relative="1" as="geometry">
            <mxPoint x="1080" y="179.5" as="sourcePoint" />
            <mxPoint x="1210" y="179.5" as="targetPoint" />
          </mxGeometry>
        </mxCell>
        <mxCell id="9Bpj3PZlE4hfknJTu2K--27" value="" style="shape=link;html=1;rounded=0;exitX=0.5;exitY=0;exitDx=0;exitDy=0;entryX=0.5;entryY=1;entryDx=0;entryDy=0;" edge="1" parent="1" source="9Bpj3PZlE4hfknJTu2K--5" target="9Bpj3PZlE4hfknJTu2K--22">
          <mxGeometry width="100" relative="1" as="geometry">
            <mxPoint x="1090" y="189.5" as="sourcePoint" />
            <mxPoint x="1220" y="189.5" as="targetPoint" />
          </mxGeometry>
        </mxCell>
      </root>
    </mxGraphModel>
  </diagram>
</mxfile>
